# xmcd
#
# Track frame offsets:
#	150
#	44549
#	106420
#	165975
#	228414
#	251442
#	294236
#	329168
#
# Disc length: 4705 seconds
#
# Revision: 0
# Processed by: cddbd v1.5.2PL0 Copyright (c) Steve Scherf et al.
# Submitted via: audiograbber 1.83.01
#
DISCID=6a125f08
DTITLE=Grateful Dead - 93-09-28 Boston Garden, Boston MA
DYEAR=1900
DGENRE=
TTITLE0=Uncle John's Band
TTITLE1=Playing In The Band
TTITLE2=Drums
TTITLE3=Space
TTITLE4=Attics Of My Life
TTITLE5=Throwing Stones
TTITLE6=Good Lovin'
TTITLE7=US Blues
EXTD=
EXTT0=
EXTT1=
EXTT2=
EXTT3=
EXTT4=
EXTT5=
EXTT6=
EXTT7=
PLAYORDER=
